<svg width="42" height="60" viewBox="0 0 42 60" fill="none" xmlns="http://www.w3.org/2000/svg">
<path d="M41.4968 6.86568V6.36816L35.8069 3.08458L23.348 10.3483L5.68986 0L0 3.28358V39.005L5.29745 42.0896V56.7164L10.9873 60L23.348 52.7363L30.5095 56.9154L36.1993 53.6318V45.2737L41.4968 42.1891V6.86568ZM35.4145 17.413L34.6297 16.9154L35.4145 16.4179V17.413ZM35.8069 3.9801L40.3195 6.66666L28.6455 13.5323L24.1328 10.8458L35.8069 3.9801ZM5.68986 0.895524L35.1202 18.1094L30.6075 20.796L1.07911 3.48259L5.68986 0.895524ZM5.98417 56.3184V21.791L10.4968 24.4776V58.9055L5.98417 56.3184ZM17.3639 20.0995L10.8892 23.8806L6.37655 21.194L12.7532 17.413L17.3639 20.0995ZM11.2816 17.413V16.5174L12.0664 17.0149L11.2816 17.413ZM10.5949 16.1194V17.9104L6.08225 20.597V13.5323L10.5949 16.1194ZM11.2816 59.005V24.4776L18.0506 20.4975L22.5632 23.1841L15.7942 27.1642V50.9453L18.0506 49.6517L22.5632 52.3383L11.2816 59.005ZM16.5791 41.6915V36.3184L24.9177 41.194V46.5671L16.5791 41.6915ZM24.9177 40.398L16.5791 35.5224V27.5622L23.348 23.5821L24.8196 24.4776V40.398H24.9177ZM16.5791 48.7562L17.3639 49.2538L16.5791 49.7512V48.7562ZM18.8354 49.2538L16.5791 47.9602V42.587L25.6044 47.8607V24.0796L5.29745 12.1393V41.2936L0.784809 38.6069V4.1791L30.2151 21.3931V55.8209L18.8354 49.2538ZM35.4145 53.2339L30.9018 55.9204V21.3931L35.4145 18.7064V53.2339ZM40.712 41.6915L36.1993 44.3781V15.2239L33.943 16.5174L29.4303 13.9303L40.81 7.26366V41.6915H40.712Z" fill="#666666"/>
</svg>
