<svg width="52" height="60" viewBox="0 0 52 60" fill="none" xmlns="http://www.w3.org/2000/svg">
<path d="M51.9952 15.1766C51.9922 15.1506 51.9866 15.125 51.9785 15.1C51.9711 15.0772 51.9606 15.0555 51.9475 15.0354C51.9362 15.0141 51.9226 14.994 51.907 14.9756C51.8894 14.9556 51.8693 14.9379 51.8473 14.923C51.8367 14.912 51.8256 14.9017 51.8139 14.8919C51.8068 14.8929 51.7995 14.8929 51.7924 14.8919C51.7691 14.8825 51.7451 14.8745 51.7209 14.8679C51.6969 14.86 51.6721 14.8552 51.6469 14.8536H51.6254H34.7601L26.3882 0.291271L26.3238 0.183615C26.3238 0.183615 26.3238 0.183615 26.3238 0.169261C26.304 0.145252 26.2816 0.12358 26.257 0.104667L26.2021 0.056819L26.1854 0.0424656C26.1707 0.0365996 26.1555 0.0318023 26.1401 0.028111C26.1158 0.016163 26.0902 0.00732136 26.0638 0.00179485C26.0415 -0.000598283 26.0191 -0.000598283 25.9969 0.00179485C25.9715 -0.000584129 25.946 -0.000584129 25.9206 0.00179485C25.8961 0.00759965 25.8721 0.0156062 25.849 0.0257182C25.8335 0.0302417 25.8184 0.0358382 25.8036 0.0424656L25.7893 0.056819C25.7681 0.0709591 25.7489 0.0878525 25.7321 0.107059C25.7135 0.124443 25.6967 0.143681 25.682 0.164476L25.6677 0.17883L17.2386 14.8321H0.370817H0.349345C0.323365 14.8334 0.297678 14.8382 0.272997 14.8465L0.201426 14.8703C0.194304 14.8714 0.187076 14.8714 0.179954 14.8703L0.14655 14.9014C0.124516 14.9164 0.104472 14.9341 0.086904 14.9541C0.0712405 14.9725 0.0576436 14.9925 0.0463489 15.0139C0.0190694 15.0561 0.00342808 15.1048 0.00101771 15.1551C-0.000339236 15.1702 -0.000339236 15.1854 0.00101771 15.2005C-9.9698e-05 15.2077 -9.9698e-05 15.2149 0.00101771 15.2221C0.00230443 15.2473 0.00712254 15.2723 0.015332 15.2962C0.0207481 15.3217 0.0287364 15.3465 0.0391844 15.3704C0.0398066 15.3767 0.0398066 15.3832 0.0391844 15.3895L8.47309 30.038L0.101218 44.6027C0.0613226 44.6756 0.0470417 44.7599 0.0606632 44.842C0.0595416 44.8579 0.0595416 44.8739 0.0606632 44.8898C0.0606632 44.9907 0.100629 45.0874 0.171771 45.1588C0.242912 45.2301 0.339399 45.2702 0.440008 45.2702H17.2457L25.62 59.8111C25.62 59.8111 25.62 59.8111 25.6319 59.8231C25.6617 59.8753 25.7045 59.9186 25.756 59.9499C25.8138 59.9817 25.8785 59.999 25.9444 60C26.0105 59.9995 26.0752 59.9817 26.1329 59.9499C26.1833 59.9186 26.2257 59.8758 26.257 59.8252C26.257 59.8252 26.257 59.8252 26.2713 59.8111L34.7624 45.2678H51.5109C51.5702 45.2667 51.6284 45.2511 51.6803 45.2224C51.6803 45.2224 51.6922 45.2224 51.697 45.2224C51.7099 45.2141 51.722 45.2045 51.7328 45.1936C51.7542 45.178 51.7742 45.1604 51.7924 45.141C51.8081 45.1226 51.8217 45.1026 51.833 45.0812C51.8457 45.0609 51.8561 45.0392 51.864 45.0166C51.8721 44.9917 51.8777 44.966 51.8807 44.9401C51.8819 44.9241 51.8819 44.9081 51.8807 44.8922C51.8807 44.8922 51.8807 44.8802 51.8807 44.8707C51.8736 44.8207 51.8608 44.7717 51.8425 44.7247C51.8425 44.7247 51.8425 44.7104 51.8425 44.7056L43.528 30.0547L51.9594 15.4063C51.9594 15.4063 51.9594 15.4063 51.9594 15.3871C51.9709 15.3637 51.979 15.3387 51.9833 15.3129C51.9911 15.2888 51.9967 15.2639 52 15.2388C52 15.2388 52 15.2245 52 15.2173C52 15.2101 51.9952 15.1766 51.9952 15.1766ZM50.9669 15.6025L37.9117 38.2797H31.6084L36.2321 30.2485L41.1851 21.636C41.1851 21.636 41.1851 21.6217 41.1851 21.6169C41.1959 21.5929 41.2047 21.5681 41.2113 21.5427C41.2113 21.5164 41.2113 21.4948 41.2256 21.4685C41.2399 21.4422 41.2256 21.4542 41.2256 21.447C41.227 21.4318 41.227 21.4167 41.2256 21.4015C41.2226 21.3755 41.217 21.3499 41.2089 21.325C41.201 21.3016 41.1906 21.2791 41.1779 21.258C41.1779 21.2389 41.154 21.2197 41.1397 21.2006C41.1067 21.1742 41.0748 21.1462 41.0443 21.1168C41.0443 21.1168 41.03 21.1168 41.0252 21.1168C41.0006 21.1064 40.9751 21.0983 40.9489 21.0929C40.9267 21.0847 40.9033 21.0799 40.8797 21.0786H40.8558H38.3507L35.1991 15.6025H50.9669ZM39.4935 37.0548L40.2093 38.2797H38.7968L39.4935 37.0548ZM21.2658 38.2797L16.53 30.0595L21.2658 21.8393H30.7328L35.4662 30.0595L30.7328 38.2797H21.2658ZM39.4935 23.0642L38.7778 21.8393H40.1878L39.4935 23.0642ZM25.9993 1.13338L39.0569 23.8154L35.9029 29.2916L31.2791 21.2604L26.3261 12.6574C26.3261 12.6574 26.3261 12.6574 26.3118 12.6407C26.2963 12.6191 26.2788 12.5991 26.2594 12.5809C26.2437 12.5631 26.226 12.547 26.2069 12.533L26.1878 12.5163C26.1735 12.5163 26.1568 12.5163 26.1425 12.5019C26.1187 12.4914 26.0939 12.4834 26.0685 12.478C26.0463 12.4757 26.0239 12.4757 26.0017 12.478C25.9763 12.4756 25.9508 12.4756 25.9253 12.478C25.9 12.4834 25.8751 12.4914 25.8514 12.5019C25.8367 12.5065 25.8223 12.512 25.8084 12.5187C25.8084 12.5187 25.8084 12.5187 25.7917 12.5187C25.7707 12.5358 25.7508 12.5541 25.7321 12.5737C25.715 12.5901 25.699 12.6077 25.6844 12.6263C25.6844 12.6263 25.6725 12.6263 25.6701 12.6454L24.4175 14.8201H18.1118L25.9993 1.13338ZM25.9993 13.6072L26.715 14.8321H25.3026L25.9993 13.6072ZM1.02692 15.5929H27.1421L30.2962 21.069H11.1428H11.1213C11.0953 21.0703 11.0697 21.0751 11.045 21.0833L10.9734 21.1073C10.9663 21.1083 10.9591 21.1083 10.9519 21.1073L10.9185 21.1384C10.8965 21.1533 10.8765 21.171 10.8589 21.191C10.8438 21.209 10.8302 21.2282 10.8183 21.2484C10.8056 21.2696 10.7952 21.292 10.7873 21.3154C10.7789 21.3401 10.774 21.3659 10.773 21.392C10.7716 21.4071 10.7716 21.4223 10.773 21.4374C10.7719 21.4446 10.7719 21.4518 10.773 21.4589C10.7743 21.4842 10.7791 21.5092 10.7873 21.5331C10.7931 21.5585 10.8011 21.5833 10.8112 21.6073C10.8112 21.6073 10.8112 21.6217 10.8112 21.6264L12.0637 23.8035L8.91207 29.2916L1.02692 15.5929ZM12.5027 23.0547L11.787 21.8298H13.197L12.5027 23.0547ZM1.02692 44.507L14.0893 21.8298H20.395L15.7594 29.8586L10.8088 38.4711C10.8098 38.4782 10.8098 38.4855 10.8088 38.4926C10.798 38.5163 10.79 38.5412 10.7849 38.5668C10.7767 38.5899 10.772 38.6141 10.7706 38.6385C10.7695 38.6457 10.7695 38.6529 10.7706 38.6601C10.7695 38.676 10.7695 38.692 10.7706 38.7079C10.7719 38.734 10.7767 38.7597 10.7849 38.7845C10.7933 38.8069 10.8037 38.8285 10.8159 38.8491C10.8273 38.8697 10.8409 38.8889 10.8565 38.9065C10.874 38.9272 10.8941 38.9457 10.9162 38.9615C10.9281 38.9615 10.9376 38.983 10.9495 38.9902H10.9662C11.0199 39.019 11.0796 39.0346 11.1404 39.0357H13.6431L16.7972 44.5118L1.02692 44.507ZM12.5027 37.0476L13.2185 38.2701H11.7989L12.5027 37.0476ZM25.9397 58.8637L12.9417 36.2868L16.0934 30.8083L20.7195 38.8419L25.6701 47.4544C25.6701 47.4544 25.6701 47.4544 25.682 47.4544C25.7134 47.5062 25.7567 47.5497 25.8084 47.5812C25.8655 47.6152 25.9305 47.6334 25.9969 47.6338C26.0621 47.6327 26.126 47.6155 26.183 47.5836C26.2352 47.5528 26.2788 47.5092 26.3095 47.4568L27.562 45.2822H33.8606L25.9397 58.8637ZM25.9993 46.4927L25.2835 45.2678H26.6936L25.9993 46.4927ZM50.8548 44.507H24.8493L21.6953 39.0309H40.8582C40.9182 39.0294 40.977 39.0138 41.03 38.9854H41.0467C41.061 38.9854 41.0681 38.9639 41.0801 38.9567C41.1024 38.9404 41.1232 38.9219 41.1421 38.9017C41.1562 38.8835 41.169 38.8643 41.1803 38.8443C41.1925 38.8238 41.2029 38.8021 41.2113 38.7797C41.2192 38.7547 41.2247 38.7291 41.228 38.7031C41.2291 38.6872 41.2291 38.6712 41.228 38.6553C41.228 38.6553 41.228 38.6409 41.228 38.6337C41.228 38.6266 41.228 38.5859 41.2137 38.562C41.2079 38.5363 41.199 38.5114 41.1874 38.4878C41.1885 38.4807 41.1885 38.4735 41.1874 38.4663L39.9325 36.2892L43.0842 30.8179L50.8548 44.507Z" fill="#666666"/>
</svg>
