<svg width="70" height="60" viewBox="0 0 70 60" fill="none" xmlns="http://www.w3.org/2000/svg">
<path d="M69.4092 29.3827L62.7037 17.7778H56.4957L59.5998 12.0988L52.6465 0H38.4916L34.8907 6.29628L31.2899 0H17.135L10.1816 12.0988L13.4099 17.6543H7.07748L0 29.8765L7.07748 41.9753H13.6583L10.1816 47.9012L17.2591 60H31.2899L34.8907 53.7037L38.4916 60H52.5223L59.5998 47.9012L56.1232 41.9753H62.58L69.6572 29.8765L69.4092 29.3827ZM39.6091 59.1358L45.8174 48.395H58.234L52.0257 59.1358H39.6091ZM38.8641 58.642L35.5115 52.8395L38.3674 47.9012L35.5115 42.9629L38.8641 37.1605L45.0724 47.9012L38.8641 58.642ZM18.2524 59.1358L24.4608 48.395H36.8774L30.6691 59.1358H18.2524ZM17.5074 58.642L11.2991 47.9012L14.7758 41.9753H20.2391L23.7158 47.9012L17.5074 58.642ZM8.07082 40.9877L14.2792 30.2469H26.6958L20.4874 40.9877H8.07082ZM7.3258 40.6173L1.1175 29.8765L7.3258 19.1358L13.5341 29.8765L7.3258 40.6173ZM8.07082 18.642H13.9066L17.135 24.1975H23.7158L26.6958 29.3827H14.2792L8.07082 18.642ZM18.2524 0.987654H30.6691L34.2699 7.28394L31.6624 11.7284H24.3366L18.2524 0.987654ZM39.6091 0.987654H52.0257L58.234 11.7284H45.8174L39.6091 0.987654ZM52.0257 35.8025H45.9415L42.4649 29.8765L48.6732 19.1358L54.8815 29.8765L52.0257 35.8025ZM38.4916 35.8025L34.8907 42.0988L31.2899 35.8025H24.7091L28.1857 29.8765L24.9574 24.321H31.2899L34.8907 18.0247L38.4916 24.321H44.6999L41.4716 29.8765L44.9482 35.8025H38.4916ZM31.7866 47.4074H24.4608L21.1083 41.7284L24.0883 36.6667H30.6691L36.8774 47.4074H31.7866ZM18.2524 23.3333L24.4608 12.5926H31.7866L34.3941 17.0371L30.7932 23.3333H18.2524ZM55.8748 29.3827L49.6665 18.642H62.0834L68.2916 29.3827H55.8748ZM49.0457 17.6543H48.549L45.3207 23.2099H39.7332L45.9415 12.4691H58.3582L55.3781 17.6543H49.0457ZM39.1124 1.97531L45.0724 12.2222L38.8641 22.963L32.6557 12.2222L38.8641 1.48148L39.1124 1.97531ZM17.7558 1.97531L23.7158 12.2222L17.5074 22.963L11.175 12.0988L17.3833 1.35802L17.7558 1.97531ZM45.8174 47.4074L39.6091 36.6667H52.0257L58.234 47.4074H45.8174ZM54.0124 38.2716L52.8948 36.2963L55.8748 30.3704H68.2916L62.0834 41.1111H55.6265L54.0124 38.2716Z" fill="#666666"/>
</svg>
