<svg width="69" height="60" viewBox="0 0 69 60" fill="none" xmlns="http://www.w3.org/2000/svg">
<path d="M11.5444 50.0604L17.1355 59.7929C17.1355 59.7929 17.1355 59.8447 17.1872 59.8447L17.239 59.8964C17.239 59.8964 17.239 59.8964 17.2907 59.9482C17.3425 60 17.3943 60 17.4461 60H28.6799C28.7317 60 28.7834 60 28.8352 59.9482C28.8352 59.9482 28.887 59.9482 28.887 59.8964C28.9387 59.8447 28.9387 59.8447 28.9905 59.7929L34.5298 50.2157L40.069 59.7929C40.069 59.7929 40.069 59.8447 40.1208 59.8447L40.1726 59.8964C40.1726 59.8964 40.1726 59.8964 40.2244 59.9482C40.2761 60 40.3279 60 40.3796 60H51.6134C51.6652 60 51.717 60 51.7688 59.9482C51.7688 59.9482 51.8206 59.9482 51.8206 59.8964C51.8723 59.8447 51.8723 59.8447 51.9241 59.7929L57.5151 50.0604V50.0086V49.9568V49.9051V49.8533V49.8016V49.7498L51.9758 40.1726H63.0546C63.1062 40.1726 63.1578 40.1726 63.2094 40.1208C63.2094 40.1208 63.2616 40.1208 63.2616 40.069C63.3132 40.0172 63.3132 40.0172 63.3648 39.9655L68.9562 30.233V30.1812V30.1294V30.0776V30.0259V29.9741V29.9224L63.3648 20.1898C63.3648 20.1898 63.3648 20.1898 63.3132 20.138L63.2616 20.0863L63.2094 20.0345C63.2094 20.0345 63.1578 20.0345 63.1578 19.9828C63.1578 19.9828 63.1062 19.9828 63.0546 19.9828H63.0024H51.9241L57.4633 10.4055V10.3538V10.302V10.2502V10.1984V10.1467V10.0949L51.9758 0.207075C51.9758 0.207075 51.9758 0.207075 51.9241 0.155306L51.8723 0.103538L51.8206 0.0517688C51.8206 0.0517688 51.7688 0.0517688 51.7688 0C51.7688 0 51.717 0 51.6652 0H51.6134H40.4314H40.3796H40.3279H40.2761C40.2761 0 40.2244 0 40.2244 0.0517688C40.2244 0.0517688 40.1726 0.0517688 40.1726 0.103538C40.1726 0.103538 40.1726 0.103538 40.1208 0.155306L34.5298 9.78432L28.9905 0.207075C28.9905 0.207075 28.9905 0.207075 28.9387 0.155306L28.887 0.103538L28.8352 0.0517688C28.8352 0.0517688 28.7834 0.0517688 28.7834 0C28.7317 0 28.7317 0 28.6799 0H28.6281H17.4461H17.3943H17.3425H17.2907C17.2907 0 17.239 0 17.239 0.0517688C17.239 0.0517688 17.1872 0.0517688 17.1872 0.103538C17.1872 0.103538 17.1872 0.103538 17.1355 0.155306L11.5444 9.88782V9.9396V9.99138V10.0432V10.0949C11.5444 10.1467 11.5444 10.1467 11.5444 10.1467V10.1984L17.0837 19.8792H6.00516H5.95341H5.90164H5.84987C5.84987 19.8792 5.7981 19.8792 5.7981 19.931C5.7981 19.931 5.74633 19.931 5.74633 19.9828C5.74633 19.9828 5.74633 20.0345 5.69456 20.0345L0.0517688 29.767V29.8188V29.8706V29.9224C0 30.0259 0 30.0259 0 30.0259C0 30.0776 0 30.0776 0 30.0776V30.1294L5.6428 39.862C5.6428 39.862 5.6428 39.9137 5.69456 39.9137L5.74633 39.9655C5.74633 39.9655 5.74633 39.9655 5.7981 40.0172C5.84987 40.069 5.90164 40.069 5.95341 40.069H17.0837L11.5444 49.6462V49.698V49.7498V49.8016V49.8533C11.4926 49.9568 11.4926 49.9568 11.5444 50.0604C11.4926 50.0604 11.4926 50.0086 11.5444 50.0604ZM6.67818 39.2925L11.855 30.3365H33.9085L28.7317 39.2925H6.67818ZM6.00516 21.0699L11.1821 30.0259L6.00516 38.9819L0.8283 30.0259L6.00516 21.0699ZM12.3209 10.0949L17.4979 1.13891L28.4728 20.2934L23.296 29.2493L12.3209 10.0949ZM40.4314 1.19068L45.6083 10.1467L34.5298 29.1976L29.3529 20.2416L40.4314 1.19068ZM51.4064 0.776532L56.5832 9.73254H46.2295L41.0527 0.776532H51.4064ZM62.8992 20.6557L68.076 29.6117H45.9707L40.7938 20.6557H62.8992ZM56.5832 49.4909H46.2295L35.2028 30.3883H45.5565L56.5832 49.4909ZM51.4064 59.1717H41.1044L46.2813 50.2157H56.5832L51.4064 59.1717ZM35.2028 29.6117L40.1208 21.0699L45.0388 29.6117H35.2028ZM33.8568 29.6117H24.0207L28.9387 21.0699L33.8568 29.6117ZM34.5298 30.7507L39.4478 39.2925H29.6117L34.5298 30.7507ZM39.4996 40.069L28.4728 59.1717H18.119L29.1458 40.069H39.4996ZM40.1726 40.4832L45.5565 49.8533L40.3796 58.8093L34.9957 49.3874L40.1726 40.4832ZM46.4366 30.3883H68.0244L62.847 39.3443H51.6134L46.4366 30.3883ZM40.8455 19.8792L46.2813 10.5091H56.5832L51.1475 19.8792H40.8455ZM28.9387 19.5168L18.119 0.776532H28.4728L34.1156 10.5608L28.9387 19.5168ZM22.6747 29.6117H11.8033L6.6264 20.6557H17.4979L22.6747 29.6117ZM28.2658 40.069L17.4461 58.8093L12.2692 49.8533L17.912 40.069H28.2658Z" fill="#666666"/>
</svg>
