<?xml version="1.0" encoding="UTF-8"?>
<svg version="1.1" xmlns="http://www.w3.org/2000/svg" width="182" height="35">
<path d="M0 0 C2.625 2.0625 2.625 2.0625 4 4 C4.33 2.68 4.66 1.36 5 0 C13.58 0 22.16 0 31 0 C31 1.98 31 3.96 31 6 C27.7 6 24.4 6 21 6 C21 14.25 21 22.5 21 31 C18.69 31 16.38 31 14 31 C14 22.75 14 14.5 14 6 C11.03 6 8.06 6 5 6 C5 6.99 5 7.98 5 9 C2.69 9 0.38 9 -2 9 C-2.495 7.515 -2.495 7.515 -3 6 C-5.31 6.33 -7.62 6.66 -10 7 C-10 7.99 -10 8.98 -10 10 C-8.64455078 10.43699219 -8.64455078 10.43699219 -7.26171875 10.8828125 C-6.08222656 11.29273438 -4.90273437 11.70265625 -3.6875 12.125 C-2.51574219 12.51945313 -1.34398437 12.91390625 -0.13671875 13.3203125 C3.68392732 15.36623754 4.60886287 16.94597723 6 21 C5.41220961 24.85329258 4.8889967 27.13968061 2.0625 29.875 C-2.17801899 32.18801036 -6.26340997 32.51932367 -11 32 C-14.31217963 30.65059348 -16.4792773 29.5207227 -19 27 C-19.33 28.32 -19.66 29.64 -20 31 C-22.31 31 -24.62 31 -27 31 C-27.33 22.09 -27.66 13.18 -28 4 C-30.97 12.91 -33.94 21.82 -37 31 C-40.3 31 -43.6 31 -47 31 C-49.85791762 24.0322451 -52.40813623 17.03125323 -54.75 9.875 C-55.06582031 8.91851562 -55.38164063 7.96203125 -55.70703125 6.9765625 C-56.47414934 4.65196221 -57.23748052 2.32611279 -58 0 C-55.03 0 -52.06 0 -49 0 C-48.57847656 1.35996094 -48.15695313 2.71992188 -47.72265625 4.12109375 C-47.16943405 5.89328013 -46.61603975 7.66541279 -46.0625 9.4375 C-45.78470703 10.33533203 -45.50691406 11.23316406 -45.22070312 12.15820312 C-44.81948242 13.43920898 -44.81948242 13.43920898 -44.41015625 14.74609375 C-44.16402588 15.53685303 -43.91789551 16.3276123 -43.66430664 17.14233398 C-43.15313949 18.98943308 -43.15313949 18.98943308 -42 20 C-41.823479 19.42967041 -41.64695801 18.85934082 -41.46508789 18.27172852 C-40.66744801 15.7009727 -39.86504006 13.13173007 -39.0625 10.5625 C-38.78470703 9.66466797 -38.50691406 8.76683594 -38.22070312 7.84179688 C-37.95322266 6.98779297 -37.68574219 6.13378906 -37.41015625 5.25390625 C-37.16402588 4.46314697 -36.91789551 3.6723877 -36.66430664 2.85766602 C-36 1 -36 1 -35 0 C-32.4672235 -0.07320163 -29.96896082 -0.09227569 -27.4375 -0.0625 C-24.983125 -0.041875 -22.52875 -0.02125 -20 0 C-20 6.93 -20 13.86 -20 21 C-17.69 21 -15.38 21 -13 21 C-12.34 21.99 -11.68 22.98 -11 24 C-7.6993784 25.01557588 -6.32787119 25.1092904 -3 24 C-3.12847642 22.01830901 -3.12847642 22.01830901 -4 20 C-6.15350918 19.03687074 -6.15350918 19.03687074 -8.75 18.5625 C-13.40794486 17.32127114 -16.1478879 16.08802734 -19 12 C-19.72150476 8.15197461 -19.36104841 6.58837519 -17.3125 3.25 C-12.16025006 -1.76299994 -6.75351634 -1.62858826 0 0 Z " fill="#FFFFFF" transform="translate(126,2)"/>
<path d="M0 0 C3.3 0 6.6 0 10 0 C11.42808369 4.09206747 12.85214285 8.18550604 14.27246094 12.28027344 C14.75637735 13.67356297 15.2413986 15.06646928 15.72753906 16.45898438 C16.42542506 18.4586414 17.1193484 20.45963523 17.8125 22.4609375 C18.23144531 23.66540527 18.65039062 24.86987305 19.08203125 26.11083984 C20 29 20 29 20 31 C17.36 31 14.72 31 12 31 C11.34 28.69 10.68 26.38 10 24 C5.05 24.495 5.05 24.495 0 25 C-0.66 26.98 -1.32 28.96 -2 31 C-4.64 31 -7.28 31 -10 31 C-8.59643358 23.85658565 -6.42618635 17.24817592 -3.875 10.4375 C-3.50246094 9.42880859 -3.12992188 8.42011719 -2.74609375 7.38085938 C-1.83589566 4.91865686 -0.91867313 2.45905296 0 0 Z M4 10 C3.34 12.64 2.68 15.28 2 18 C3.98 18 5.96 18 8 18 C7.34 15.36 6.68 12.72 6 10 C5.34 10 4.68 10 4 10 Z " fill="#FFFFFF" transform="translate(54,2)"/>
<path d="M0 0 C3.46679688 0.04882812 3.46679688 0.04882812 6.93359375 0.09765625 C10.11690133 6.78950421 12.50158827 13.58502688 14.68359375 20.66015625 C14.99941406 21.66884766 15.31523437 22.67753906 15.640625 23.71679688 C16.40974008 26.17563449 17.17395558 28.63587775 17.93359375 31.09765625 C15.29359375 31.09765625 12.65359375 31.09765625 9.93359375 31.09765625 C9.27359375 28.78765625 8.61359375 26.47765625 7.93359375 24.09765625 C4.30359375 24.09765625 0.67359375 24.09765625 -3.06640625 24.09765625 C-3.21078125 25.06703125 -3.35515625 26.03640625 -3.50390625 27.03515625 C-4.06640625 30.09765625 -4.06640625 30.09765625 -5.06640625 31.09765625 C-7.73699476 31.23880786 -10.39072863 31.14012732 -13.06640625 31.09765625 C-11.66437548 26.84223675 -10.25845847 22.58812769 -8.84887695 18.33520508 C-8.36960726 16.8873198 -7.89141368 15.43907787 -7.41430664 13.99047852 C-6.72953341 11.911982 -6.04093853 9.83478622 -5.3515625 7.7578125 C-4.937854 6.50621338 -4.52414551 5.25461426 -4.09790039 3.96508789 C-2.71775181 0.12843818 -2.71775181 0.12843818 0 0 Z M1.93359375 9.09765625 C1.27359375 12.06765625 0.61359375 15.03765625 -0.06640625 18.09765625 C1.91359375 18.09765625 3.89359375 18.09765625 5.93359375 18.09765625 C4.94359375 15.12765625 3.95359375 12.15765625 2.93359375 9.09765625 C2.60359375 9.09765625 2.27359375 9.09765625 1.93359375 9.09765625 Z " fill="#FFFFFF" transform="translate(164.06640625,1.90234375)"/>
<path d="M0 0 C0.99 0 1.98 0 3 0 C3.21914063 0.67546875 3.43828125 1.3509375 3.6640625 2.046875 C5.72672195 7.84915279 7.19778933 11.21493888 13 14 C16.2249208 15.24324147 16.2249208 15.24324147 19 16 C18.73828125 17.91015625 18.73828125 17.91015625 18 20 C16.29296875 20.87109375 16.29296875 20.87109375 14.1875 21.4375 C10.10784612 22.79981299 8.30269778 24.24745547 6 28 C4.89164972 30.30786357 3.936219 32.61264154 3 35 C2.01 35 1.02 35 0 35 C-0.15855469 34.39671875 -0.31710937 33.7934375 -0.48046875 33.171875 C-1.99477404 27.98475192 -3.12258334 24.81806296 -8 22 C-10.64258518 20.87027028 -13.27313183 19.92436209 -16 19 C-16 18.01 -16 17.02 -16 16 C-15.11248047 15.77957031 -15.11248047 15.77957031 -14.20703125 15.5546875 C-8.2444519 13.86220984 -5.34534809 12.2714576 -2 7 C-1.10693754 4.6592363 -0.54102397 2.45919988 0 0 Z " fill="#E82C00" transform="translate(16,0)"/>
</svg>
