<svg 
 xmlns="http://www.w3.org/2000/svg"
 xmlns:xlink="http://www.w3.org/1999/xlink"
 width="46px" height="46px">
<path fill-rule="evenodd"  fill="rgb(251, 13, 31)"
 d="M22.643,0.92 C35.93,0.92 45.185,10.287 45.185,22.864 C45.185,26.487 44.347,29.910 42.857,32.952 C41.621,35.473 37.959,35.250 37.40,32.598 L30.530,13.802 C29.550,10.971 25.547,10.971 24.567,13.802 L15.315,40.510 C14.648,42.438 12.356,43.234 10.636,42.139 C4.305,38.108 0.100,30.982 0.100,22.864 C0.100,10.287 10.192,0.92 22.643,0.92 L22.643,0.92 ZM32.649,38.429 C34.345,39.948 33.927,42.713 31.854,43.653 C29.42,44.926 25.925,45.636 22.643,45.636 C22.618,45.636 22.594,45.636 22.569,45.636 C19.705,45.628 18.362,42.89 20.496,40.177 L25.444,35.748 C26.642,34.674 28.455,34.676 29.653,35.748 L32.649,38.429 Z"/>
</svg>